<svg xmlns="http://www.w3.org/2000/svg" width="800" height="600" viewBox="0 0 800 600"><defs><linearGradient id="sky" x1="0" y1="0" x2="0" y2="1"><stop offset="0" stop-color="#92400e"/><stop offset="0.65" stop-color="#fbbf24"/><stop offset="1" stop-color="#fef3c7"/></linearGradient></defs><rect width="800" height="600" fill="url(#sky)"/><ellipse cx="150" cy="430" rx="220" ry="60" fill="#d97706" opacity="0.5"/><ellipse cx="620" cy="435" rx="260" ry="55" fill="#b45309" opacity="0.45"/><circle cx="660" cy="110" r="42" fill="#fef9c3" opacity="0.95"/><circle cx="660" cy="110" r="60" fill="#fef9c3" opacity="0.25"/><g fill="#ffffff" opacity="0.85"><ellipse cx="180" cy="120" rx="70" ry="22"/><ellipse cx="230" cy="108" rx="55" ry="20"/><ellipse cx="420" cy="80" rx="60" ry="18"/></g><rect y="440" width="800" height="160" fill="#334155"/><rect y="440" width="800" height="8" fill="#475569"/><g fill="#f8fafc"><rect x="20" y="516" width="48" height="8" rx="4"/><rect x="110" y="516" width="48" height="8" rx="4"/><rect x="200" y="516" width="48" height="8" rx="4"/><rect x="290" y="516" width="48" height="8" rx="4"/><rect x="380" y="516" width="48" height="8" rx="4"/><rect x="470" y="516" width="48" height="8" rx="4"/><rect x="560" y="516" width="48" height="8" rx="4"/><rect x="650" y="516" width="48" height="8" rx="4"/><rect x="740" y="516" width="48" height="8" rx="4"/></g><ellipse cx="400" cy="456" rx="320" ry="26" fill="#000000" opacity="0.30"/><circle cx="220" cy="424" r="58" fill="#0f172a"/><circle cx="220" cy="424" r="36" fill="#cbd5e1"/><line x1="220" y1="424" x2="251.9" y2="424.0" stroke="#94a3b8" stroke-width="8"/><line x1="220" y1="424" x2="229.9" y2="454.3" stroke="#94a3b8" stroke-width="8"/><line x1="220" y1="424" x2="194.2" y2="442.8" stroke="#94a3b8" stroke-width="8"/><line x1="220" y1="424" x2="194.2" y2="405.2" stroke="#94a3b8" stroke-width="8"/><line x1="220" y1="424" x2="229.9" y2="393.7" stroke="#94a3b8" stroke-width="8"/><circle cx="220" cy="424" r="9" fill="#475569"/><circle cx="560" cy="424" r="58" fill="#0f172a"/><circle cx="560" cy="424" r="36" fill="#cbd5e1"/><line x1="560" y1="424" x2="591.9" y2="424.0" stroke="#94a3b8" stroke-width="8"/><line x1="560" y1="424" x2="569.9" y2="454.3" stroke="#94a3b8" stroke-width="8"/><line x1="560" y1="424" x2="534.2" y2="442.8" stroke="#94a3b8" stroke-width="8"/><line x1="560" y1="424" x2="534.2" y2="405.2" stroke="#94a3b8" stroke-width="8"/><line x1="560" y1="424" x2="569.9" y2="393.7" stroke="#94a3b8" stroke-width="8"/><circle cx="560" cy="424" r="9" fill="#475569"/><circle cx="640" cy="424" r="58" fill="#0f172a"/><circle cx="640" cy="424" r="36" fill="#cbd5e1"/><line x1="640" y1="424" x2="671.9" y2="424.0" stroke="#94a3b8" stroke-width="8"/><line x1="640" y1="424" x2="649.9" y2="454.3" stroke="#94a3b8" stroke-width="8"/><line x1="640" y1="424" x2="614.2" y2="442.8" stroke="#94a3b8" stroke-width="8"/><line x1="640" y1="424" x2="614.2" y2="405.2" stroke="#94a3b8" stroke-width="8"/><line x1="640" y1="424" x2="649.9" y2="393.7" stroke="#94a3b8" stroke-width="8"/><circle cx="640" cy="424" r="9" fill="#475569"/>
      <rect x="300" y="200" width="330" height="222" rx="14" fill="#f8fafc"/>
      <rect x="300" y="200" width="330" height="222" rx="14" fill="none" stroke="#cbd5e1" stroke-width="6"/>
      <line x1="300" y1="260" x2="630" y2="260" stroke="#e2e8f0" stroke-width="6"/><line x1="300" y1="315" x2="630" y2="315" stroke="#e2e8f0" stroke-width="6"/><line x1="300" y1="370" x2="630" y2="370" stroke="#e2e8f0" stroke-width="6"/>
      <rect x="120" y="300" width="180" height="122" rx="16" fill="#0369a1"/>
      <polygon points="140,314 260,314 260,352 140,352" fill="#0f2a4a"/><polygon points="140,314 260,314 260,352 140,352" fill="#ffffff" opacity="0.12"/>
      <rect x="262" y="360" width="40" height="16" rx="8" fill="#fef08a"/></svg>